# xmcd
#
# Track frame offsets: 
#        150
#        48378
#        70454
#        100068
#        121003
#
# Disc length: 1916 seconds
#
# Revision: 1
# Processed by: cddbd v1.5.2PL0 Copyright (c) Steve Scherf et al.
# Submitted via: ExactAudioCopy v1.0b3
#
DISCID=3c077a05
DTITLE=Jo Bisso - Love Somebody
DYEAR=1977
DGENRE=Disco
TTITLE0=Love Somebody, Pt.1
TTITLE1=Love Somebody, Pt. 2
TTITLE2=Your Love
TTITLE3=Let's Keep It Together
TTITLE4=Thank You Baby
EXTD=
EXTT0=
EXTT1=
EXTT2=
EXTT3=
EXTT4=
PLAYORDER=
